<svg xmlns="http://www.w3.org/2000/svg" width="76.682" height="121.077" viewBox="0 0 76.682 121.077"><defs><style>.a{fill:#292f58;}</style></defs><g transform="translate(-15.5 -15.5)"><g transform="translate(15.5 15.5)"><path class="a" d="M13.8,48.108,25.218,35.262,13.8,22.575Z" transform="translate(26.559 43.446)"/><path class="a" d="M13.8,35.628,25.218,22.941,13.8,10.095Z" transform="translate(26.559 19.428)"/><path class="a" d="M38.341,0A38.383,38.383,0,0,0,0,38.341V82.736a38.341,38.341,0,1,0,76.682,0V38.341A38.383,38.383,0,0,0,38.341,0ZM55.984,77.35a2.015,2.015,0,0,1,.008,2.69L39.848,98.2a2.017,2.017,0,0,1-3.525-1.34V65.573L19.661,84.086a2.018,2.018,0,0,1-3-2.7L35.425,60.538,16.662,39.691a2.018,2.018,0,1,1,3-2.7L36.323,55.5V24.215a2.018,2.018,0,0,1,3.527-1.34L55.994,41.037a2.019,2.019,0,0,1-.008,2.69L40.853,60.538Z"/></g></g></svg>