<svg xmlns="http://www.w3.org/2000/svg" width="266.715" height="161.602" viewBox="0 0 266.715 161.602"><defs><style>.a{fill:#292f58;}.b{fill:#52ffec;}</style></defs><g transform="translate(73.845 -58.923) rotate(30)"><g transform="translate(15.501 15.5)"><g transform="translate(0 0)"><path class="a" d="M103.895,60.6l17.527-17.533a6.2,6.2,0,0,0-8.764-8.764L95.131,51.828,77.6,34.3,95.131,16.774A6.2,6.2,0,0,0,86.367,8.01L68.84,25.537a12.4,12.4,0,0,0-17.533,0L29.4,47.446a18.591,18.591,0,0,0,0,26.3,6.191,6.191,0,0,1,0,8.764l-4.382,4.382a6.18,6.18,0,0,0,0,8.764l1.971,1.971c-8.262,7.09-13.722,8.193-21.7.217a3.1,3.1,0,0,0-4.382,4.382c11.708,11.708,20.979,7.958,30.468-.2l2.4,2.4a6.18,6.18,0,0,0,8.764,0l4.382-4.382a6.191,6.191,0,0,1,8.764,0,18.591,18.591,0,0,0,26.3,0l21.909-21.909A12.393,12.393,0,0,0,103.895,60.6Z" transform="translate(-0.001 49.394)"/><path class="b" d="M92.7,22.338a6.18,6.18,0,0,0,0-8.764L90.725,11.6c3.607-3.1,6.687-5.014,9.681-5.547a2.474,2.474,0,0,0,2.02-2.082c.019-.105.031-.211.05-.31a3.2,3.2,0,0,0-3.9-3.576c-4.177,1-8.187,3.638-12.234,7.121l-2.4-2.4a6.18,6.18,0,0,0-8.764,0L70.787,9.192a6.191,6.191,0,0,1-8.764,0,18.591,18.591,0,0,0-26.3,0L13.818,31.107a12.393,12.393,0,0,0,0,17.527L48.878,83.7a12.393,12.393,0,0,0,17.527,0L88.314,61.786a18.591,18.591,0,0,0,0-26.3,6.191,6.191,0,0,1,0-8.764Z" transform="translate(101.562 -20.928)"/></g></g></g></svg>